<?xml version="1.0" encoding="utf-8"?>
<!-- Generator: Adobe Illustrator 16.0.0, SVG Export Plug-In . SVG Version: 6.00 Build 0)  -->
<!DOCTYPE svg PUBLIC "-//W3C//DTD SVG 1.1//EN" "http://www.w3.org/Graphics/SVG/1.1/DTD/svg11.dtd">
<svg fill="#ffffff" xmlns="http://www.w3.org/2000/svg" xmlns:xlink="http://www.w3.org/1999/xlink"
	 width="2219.507px" height="529px" viewBox="96.565 735.5 2219.507 529">
<g>
	<g>
		<g>
			<path d="M835.427,993.651l-54.743-122.469c-4.699-93.619-158.253-135.728-310.78-135.728
				c-152.535,0-306.095,42.109-310.763,135.728l-54.465,121.847c-15.313,30.625-8.527,68.315,16.807,91.938l198.098,175.657
				c2.832,2.552,6.536,3.922,10.333,3.922c0.997,0,1.961-0.094,2.958-0.28c4.762-0.902,8.807-3.984,10.987-8.31l57.952-115.901
				H538.19l57.948,115.901c2.147,4.325,6.224,7.406,10.987,8.31c0.964,0.187,1.96,0.28,2.957,0.28c3.764,0,7.438-1.37,10.333-3.922
				l198.399-175.907C843.675,1061.375,850.491,1023.685,835.427,993.651z M417.276,1108.931l15.562-31.123h74.134l15.561,31.123
				H417.276z M511.421,1046.686h-83.003L190.67,868.381c8.87-58.479,125.799-101.803,279.236-101.803
				c153.461,0,270.354,43.323,279.223,101.803L511.421,1046.686z"/>
		</g>
	</g>
</g>
<g>
	<path d="M929.872,916.817c0-22.14,3.415-41.884,10.25-59.245c6.829-17.354,16.054-32.044,27.675-44.075
		c11.614-12.025,25.145-21.179,40.59-27.47c15.439-6.285,31.776-9.43,48.996-9.43c16.669,0,31.775,3.485,45.305,10.455
		c13.53,6.97,24.806,15.106,33.825,24.395l-33.21,37.31c-6.835-6.285-13.734-11.205-20.705-14.76
		c-6.97-3.549-15.105-5.33-24.395-5.33c-9.296,0-17.977,1.986-26.035,5.945c-8.066,3.965-15.107,9.635-21.116,17.015
		c-6.016,7.38-10.731,16.4-14.146,27.06c-3.421,10.66-5.125,22.691-5.125,36.08c0,27.611,5.875,48.995,17.63,64.165
		c11.75,15.17,27.472,22.754,47.151,22.754c10.93,0,20.5-2.184,28.7-6.559c8.2-4.369,15.58-10.109,22.141-17.22l33.21,36.489
		c-11.211,13.12-23.985,22.96-38.335,29.521c-14.351,6.56-29.866,9.84-46.535,9.84c-17.221,0-33.486-2.94-48.792-8.814
		c-15.311-5.875-28.7-14.556-40.18-26.035c-11.48-11.48-20.5-25.759-27.06-42.845C933.152,958.983,929.872,939.233,929.872,916.817z
		"/>
	<path d="M1274.684,1053.757c-18.04,0-34.511-3.216-49.405-9.635c-14.901-6.419-27.675-15.645-38.335-27.675
		c-10.66-12.024-18.931-26.65-24.806-43.87c-5.881-17.221-8.814-36.759-8.814-58.63c0-21.864,2.934-41.339,8.814-58.425
		c5.875-17.079,14.146-31.429,24.806-43.05c10.66-11.614,23.434-20.5,38.335-26.65c14.895-6.15,31.365-9.225,49.405-9.225
		c18.039,0,34.504,3.075,49.404,9.225c14.895,6.15,27.675,15.106,38.335,26.855c10.66,11.756,18.925,26.176,24.806,43.255
		c5.874,17.085,8.814,36.426,8.814,58.015c0,21.871-2.94,41.41-8.814,58.63c-5.881,17.22-14.146,31.845-24.806,43.87
		c-10.66,12.03-23.44,21.256-38.335,27.675C1309.188,1050.541,1292.723,1053.757,1274.684,1053.757z M1274.684,1001.687
		c18.309,0,32.8-7.853,43.46-23.574c10.659-15.715,15.989-37.105,15.989-64.166c0-26.784-5.33-47.694-15.989-62.73
		c-10.66-15.029-25.151-22.55-43.46-22.55c-18.316,0-32.801,7.521-43.461,22.55c-10.659,15.036-15.989,35.946-15.989,62.73
		c0,27.06,5.33,48.451,15.989,64.166C1241.883,993.833,1256.367,1001.687,1274.684,1001.687z"/>
	<path d="M1446.47,781.518h60.27v216.48h105.78v50.839h-166.05V781.518z"/>
	<path d="M1658.846,781.518h60.27v216.48h105.78v50.839h-166.05V781.518z"/>
	<path d="M1994.224,985.288h-81.59l-16.4,63.549h-61.5l83.64-267.319h72.57l83.64,267.319h-63.96L1994.224,985.288z
		 M1981.924,938.137l-6.15-24.6c-3.831-13.389-7.521-27.604-11.07-42.64c-3.556-15.029-7.11-29.52-10.66-43.46h-1.64
		c-3.28,14.215-6.631,28.771-10.045,43.665c-3.421,14.901-7.04,29.046-10.865,42.435l-6.56,24.6H1981.924z"/>
	<path d="M2248.422,1048.837l-51.25-96.349h-33.21v96.349h-60.27V781.518h96.35c14.209,0,27.534,1.371,39.975,4.1
		c12.435,2.736,23.3,7.316,32.596,13.735c9.289,6.425,16.669,14.965,22.14,25.625c5.465,10.66,8.2,23.921,8.2,39.77
		c0,19.68-4.305,35.875-12.915,48.585s-20.16,22.21-34.646,28.495l60.681,107.009H2248.422z M2163.962,904.518h31.16
		c15.849,0,27.944-3.344,36.285-10.045c8.334-6.694,12.505-16.605,12.505-29.725c0-13.12-4.171-22.275-12.505-27.47
		c-8.341-5.189-20.437-7.79-36.285-7.79h-31.16V904.518z"/>
</g>
<g>
	<path d="M1037.58,1223.648c-6.4,0-12.251-1.178-17.551-3.525c-5.302-2.348-9.851-5.75-13.65-10.199
		c-3.802-4.449-6.75-9.826-8.85-16.125c-2.1-6.301-3.15-13.449-3.15-21.451c0-7.898,1.05-14.975,3.15-21.225
		c2.1-6.248,5.048-11.523,8.85-15.824c3.8-4.299,8.349-7.6,13.65-9.9c5.3-2.299,11.15-3.451,17.551-3.451
		c6.399,0,12.249,1.152,17.551,3.451c5.3,2.301,9.874,5.602,13.726,9.9c3.848,4.301,6.824,9.576,8.925,15.824
		c2.1,6.25,3.149,13.326,3.149,21.225c0,8.002-1.05,15.15-3.149,21.451c-2.101,6.299-5.077,11.676-8.925,16.125
		c-3.852,4.449-8.426,7.852-13.726,10.199C1049.829,1222.471,1043.979,1223.648,1037.58,1223.648z M1037.58,1208.498
		c3.901,0,7.4-0.848,10.501-2.551c3.099-1.699,5.749-4.125,7.95-7.273c2.198-3.15,3.899-6.949,5.1-11.4
		c1.2-4.449,1.8-9.424,1.8-14.926c0-10.998-2.275-19.623-6.824-25.875c-4.552-6.248-10.726-9.375-18.526-9.375
		c-7.8,0-13.976,3.127-18.525,9.375c-4.552,6.252-6.825,14.877-6.825,25.875c0,5.502,0.6,10.477,1.8,14.926
		c1.2,4.451,2.899,8.25,5.101,11.4c2.198,3.148,4.85,5.574,7.95,7.273C1030.179,1207.65,1033.681,1208.498,1037.58,1208.498z"/>
	<path d="M1106.581,1148.197h14.25l1.199,9.9h0.601c3.3-3.199,6.874-5.947,10.725-8.25c3.849-2.299,8.325-3.449,13.425-3.449
		c7.898,0,13.65,2.525,17.25,7.574c3.601,5.051,5.4,12.277,5.4,21.676v46.199h-17.25v-43.949c0-6.1-0.9-10.4-2.7-12.9
		c-1.8-2.498-4.751-3.75-8.85-3.75c-3.202,0-6.026,0.775-8.476,2.324c-2.451,1.553-5.227,3.826-8.324,6.826v51.449h-17.25V1148.197z
		"/>
	<path d="M1193.28,1185.098c0-6,0.949-11.4,2.85-16.199c1.898-4.801,4.425-8.85,7.575-12.15s6.773-5.85,10.875-7.65
		c4.1-1.799,8.299-2.699,12.6-2.699c5,0,9.398,0.85,13.2,2.549c3.8,1.703,6.976,4.102,9.525,7.201s4.474,6.801,5.774,11.1
		c1.299,4.301,1.95,9,1.95,14.1c0,3.4-0.251,6.102-0.75,8.1h-46.8c0.799,6.701,3.124,11.852,6.975,15.451
		c3.849,3.6,8.775,5.4,14.775,5.4c3.199,0,6.174-0.475,8.925-1.426c2.749-0.949,5.476-2.273,8.175-3.975l5.851,10.799
		c-3.502,2.303-7.401,4.201-11.7,5.701c-4.301,1.5-8.801,2.25-13.5,2.25c-5.1,0-9.851-0.877-14.25-2.625
		c-4.401-1.748-8.25-4.275-11.55-7.576c-3.3-3.299-5.876-7.324-7.726-12.074C1194.203,1196.625,1193.28,1191.199,1193.28,1185.098z
		 M1242.63,1178.498c0-5.898-1.226-10.5-3.675-13.801c-2.451-3.299-6.225-4.949-11.325-4.949c-4.401,0-8.25,1.574-11.55,4.725
		s-5.351,7.826-6.15,14.025H1242.63z"/>
	<path d="M1321.377,1123.748h33c5.399,0,10.373,0.502,14.925,1.5c4.549,1,8.475,2.699,11.774,5.1c3.301,2.4,5.899,5.527,7.801,9.375
		c1.898,3.852,2.85,8.625,2.85,14.326c0,5.398-0.951,10.102-2.85,14.1c-1.901,4-4.526,7.326-7.875,9.975
		c-3.352,2.65-7.301,4.602-11.851,5.85c-4.552,1.252-9.476,1.875-14.774,1.875h-15.601v36h-17.399V1123.748z M1353.026,1171.898
		c14.4,0,21.601-5.949,21.601-17.85c0-6.199-1.801-10.475-5.4-12.826c-3.6-2.348-9-3.525-16.2-3.525h-14.25v34.201H1353.026z"/>
	<path d="M1407.326,1202.049c0-7.898,3.45-14,10.351-18.301c6.9-4.299,17.898-7.299,33-9c0-1.898-0.25-3.725-0.75-5.475
		c-0.502-1.748-1.275-3.301-2.324-4.65c-1.051-1.35-2.4-2.4-4.051-3.15s-3.727-1.125-6.225-1.125c-3.701,0-7.275,0.701-10.725,2.1
		c-3.451,1.402-6.776,3.102-9.976,5.102l-6.301-11.551c4.1-2.6,8.675-4.85,13.726-6.75c5.049-1.898,10.523-2.85,16.426-2.85
		c9.299,0,16.199,2.725,20.699,8.174c4.5,5.453,6.75,13.328,6.75,23.625v43.65h-14.1l-1.35-8.1h-0.451
		c-3.299,2.801-6.824,5.152-10.574,7.051s-7.826,2.85-12.225,2.85c-6.502,0-11.776-1.975-15.826-5.926
		C1409.352,1213.773,1407.326,1208.549,1407.326,1202.049z M1424.126,1200.697c0,3.301,0.977,5.701,2.926,7.201
		s4.475,2.25,7.574,2.25c3,0,5.75-0.699,8.25-2.1s5.102-3.398,7.801-6v-16.5c-5.002,0.6-9.201,1.4-12.6,2.398
		c-3.4,1.002-6.127,2.127-8.176,3.375c-2.051,1.252-3.525,2.678-4.424,4.275C1424.577,1197.199,1424.126,1198.898,1424.126,1200.697
		z"/>
	<path d="M1491.476,1235.197c0-3.1,0.9-5.977,2.7-8.625c1.8-2.65,4.399-5.023,7.8-7.125v-0.6c-1.9-1.199-3.476-2.799-4.725-4.799
		c-1.252-2-1.875-4.5-1.875-7.5c0-2.9,0.824-5.525,2.475-7.875s3.525-4.275,5.625-5.775v-0.6c-2.501-1.898-4.725-4.523-6.675-7.875
		c-1.95-3.35-2.925-7.225-2.925-11.625c0-4.201,0.799-7.951,2.399-11.25c1.599-3.301,3.725-6.076,6.375-8.326
		c2.648-2.25,5.724-3.949,9.226-5.1c3.499-1.148,7.199-1.725,11.1-1.725c1.999,0,3.924,0.176,5.775,0.525
		c1.849,0.352,3.524,0.775,5.024,1.273h26.4v12.75h-13.5c1.2,1.402,2.198,3.176,3,5.326c0.799,2.15,1.2,4.525,1.2,7.125
		c0,4.102-0.727,7.701-2.176,10.799c-1.45,3.102-3.426,5.701-5.925,7.801c-2.501,2.1-5.451,3.701-8.85,4.801
		c-3.401,1.102-7.05,1.648-10.95,1.648c-1.601,0-3.251-0.148-4.95-0.449c-1.701-0.301-3.4-0.799-5.1-1.5
		c-1.102,1-1.976,2.002-2.625,3c-0.651,1-0.976,2.352-0.976,4.051c0,2.1,0.875,3.75,2.625,4.949
		c1.749,1.199,4.875,1.801,9.375,1.801h13.051c8.898,0,15.623,1.424,20.175,4.273c4.549,2.852,6.825,7.475,6.825,13.875
		c0,3.602-0.926,7-2.775,10.201c-1.852,3.199-4.477,5.947-7.875,8.25c-3.4,2.299-7.525,4.125-12.375,5.475
		c-4.852,1.35-10.275,2.025-16.275,2.025c-4.401,0-8.475-0.4-12.225-1.201s-6.975-2-9.675-3.6s-4.826-3.6-6.375-6
		C1492.249,1241.197,1491.476,1238.396,1491.476,1235.197z M1505.876,1232.648c0,3.299,1.673,5.873,5.024,7.725
		c3.35,1.85,7.974,2.775,13.875,2.775c6,0,10.823-1.178,14.476-3.525c3.648-2.352,5.475-5.125,5.475-8.324
		c0-2.902-1.125-4.852-3.375-5.852s-5.475-1.5-9.675-1.5h-10.05c-4.001,0-7.351-0.352-10.051-1.049
		C1507.774,1225.797,1505.876,1229.049,1505.876,1232.648z M1522.976,1187.648c3.499,0,6.499-1.275,9-3.826
		c2.498-2.549,3.75-6.225,3.75-11.023c0-4.6-1.226-8.176-3.675-10.727c-2.452-2.549-5.476-3.824-9.075-3.824s-6.651,1.252-9.15,3.75
		c-2.5,2.5-3.75,6.102-3.75,10.801c0,4.799,1.25,8.475,3.75,11.023C1516.324,1186.373,1519.376,1187.648,1522.976,1187.648z"/>
	<path d="M1574.726,1185.098c0-6,0.949-11.4,2.85-16.199c1.898-4.801,4.425-8.85,7.575-12.15c3.149-3.301,6.773-5.85,10.875-7.65
		c4.099-1.799,8.299-2.699,12.6-2.699c4.999,0,9.398,0.85,13.2,2.549c3.799,1.703,6.975,4.102,9.525,7.201
		c2.55,3.1,4.474,6.801,5.774,11.1c1.299,4.301,1.95,9,1.95,14.1c0,3.4-0.251,6.102-0.75,8.1h-46.8
		c0.799,6.701,3.124,11.852,6.975,15.451c3.849,3.6,8.775,5.4,14.775,5.4c3.199,0,6.173-0.475,8.925-1.426
		c2.749-0.949,5.475-2.273,8.175-3.975l5.851,10.799c-3.502,2.303-7.402,4.201-11.7,5.701c-4.301,1.5-8.801,2.25-13.5,2.25
		c-5.101,0-9.851-0.877-14.25-2.625c-4.401-1.748-8.25-4.275-11.55-7.576c-3.301-3.299-5.876-7.324-7.726-12.074
		C1575.648,1196.625,1574.726,1191.199,1574.726,1185.098z M1624.075,1178.498c0-5.898-1.226-10.5-3.675-13.801
		c-2.452-3.299-6.226-4.949-11.325-4.949c-4.401,0-8.25,1.574-11.55,4.725s-5.351,7.826-6.15,14.025H1624.075z"/>
	<path d="M1702.822,1123.748h33c5.399,0,10.373,0.502,14.925,1.5c4.549,1,8.475,2.699,11.775,5.1c3.3,2.4,5.898,5.527,7.8,9.375
		c1.898,3.852,2.85,8.625,2.85,14.326c0,5.398-0.951,10.102-2.85,14.1c-1.901,4-4.526,7.326-7.875,9.975
		c-3.352,2.65-7.301,4.602-11.851,5.85c-4.551,1.252-9.476,1.875-14.774,1.875h-15.601v36h-17.399V1123.748z M1734.472,1171.898
		c14.4,0,21.601-5.949,21.601-17.85c0-6.199-1.8-10.475-5.4-12.826c-3.6-2.348-9-3.525-16.2-3.525h-14.25v34.201H1734.472z"/>
	<path d="M1788.771,1202.049c0-7.898,3.45-14,10.351-18.301c6.899-4.299,17.898-7.299,33-9c0-1.898-0.251-3.725-0.75-5.475
		c-0.502-1.748-1.275-3.301-2.325-4.65s-2.4-2.4-4.05-3.15c-1.65-0.75-3.727-1.125-6.226-1.125c-3.7,0-7.274,0.701-10.725,2.1
		c-3.45,1.402-6.776,3.102-9.976,5.102l-6.3-11.551c4.1-2.6,8.675-4.85,13.726-6.75c5.048-1.898,10.523-2.85,16.425-2.85
		c9.3,0,16.2,2.725,20.7,8.174c4.5,5.453,6.75,13.328,6.75,23.625v43.65h-14.101l-1.35-8.1h-0.45
		c-3.3,2.801-6.825,5.152-10.575,7.051s-7.825,2.85-12.225,2.85c-6.502,0-11.775-1.975-15.825-5.926
		C1790.797,1213.773,1788.771,1208.549,1788.771,1202.049z M1805.571,1200.697c0,3.301,0.976,5.701,2.926,7.201
		c1.949,1.5,4.474,2.25,7.574,2.25c3,0,5.75-0.699,8.25-2.1c2.499-1.4,5.101-3.398,7.801-6v-16.5c-5.002,0.6-9.202,1.4-12.601,2.398
		c-3.4,1.002-6.126,2.127-8.175,3.375c-2.051,1.252-3.525,2.678-4.425,4.275C1806.021,1197.199,1805.571,1198.898,1805.571,1200.697
		z"/>
	<path d="M1877.871,1148.197h14.25l1.2,13.051h0.6c2.6-4.801,5.749-8.475,9.45-11.025c3.698-2.549,7.5-3.824,11.399-3.824
		c3.5,0,6.301,0.502,8.4,1.5l-3,15c-1.301-0.398-2.501-0.699-3.6-0.9c-1.102-0.199-2.452-0.301-4.051-0.301
		c-2.901,0-5.95,1.125-9.149,3.375c-3.202,2.25-5.951,6.176-8.25,11.775v45h-17.25V1148.197z"/>
	<path d="M1934.12,1202.049c0-7.898,3.45-14,10.351-18.301c6.899-4.299,17.898-7.299,33-9c0-1.898-0.251-3.725-0.75-5.475
		c-0.502-1.748-1.275-3.301-2.325-4.65s-2.4-2.4-4.05-3.15c-1.65-0.75-3.727-1.125-6.226-1.125c-3.7,0-7.274,0.701-10.725,2.1
		c-3.45,1.402-6.776,3.102-9.976,5.102l-6.3-11.551c4.1-2.6,8.675-4.85,13.726-6.75c5.048-1.898,10.523-2.85,16.425-2.85
		c9.3,0,16.2,2.725,20.7,8.174c4.5,5.453,6.75,13.328,6.75,23.625v43.65h-14.101l-1.35-8.1h-0.45
		c-3.3,2.801-6.825,5.152-10.575,7.051s-7.825,2.85-12.225,2.85c-6.502,0-11.775-1.975-15.825-5.926
		C1936.146,1213.773,1934.12,1208.549,1934.12,1202.049z M1950.92,1200.697c0,3.301,0.976,5.701,2.926,7.201
		c1.949,1.5,4.474,2.25,7.574,2.25c3,0,5.75-0.699,8.25-2.1c2.499-1.4,5.101-3.398,7.801-6v-16.5c-5.002,0.6-9.202,1.4-12.601,2.398
		c-3.4,1.002-6.126,2.127-8.175,3.375c-2.051,1.252-3.525,2.678-4.425,4.275C1951.37,1197.199,1950.92,1198.898,1950.92,1200.697z"
		/>
	<path d="M2023.22,1115.948h17.25v87.899c0,2.1,0.398,3.576,1.2,4.426c0.799,0.85,1.649,1.275,2.55,1.275c0.398,0,0.773,0,1.125,0
		c0.349,0,0.874-0.1,1.575-0.301l2.25,12.9c-2.302,0.998-5.352,1.5-9.15,1.5c-6.201,0-10.552-1.85-13.05-5.551
		c-2.501-3.697-3.75-8.748-3.75-15.15V1115.948z"/>
	<path d="M2071.369,1115.948h17.25v87.899c0,2.1,0.398,3.576,1.2,4.426c0.799,0.85,1.649,1.275,2.55,1.275c0.398,0,0.773,0,1.125,0
		c0.349,0,0.874-0.1,1.575-0.301l2.25,12.9c-2.302,0.998-5.352,1.5-9.15,1.5c-6.201,0-10.552-1.85-13.05-5.551
		c-2.501-3.697-3.75-8.748-3.75-15.15V1115.948z"/>
	<path d="M2116.368,1202.049c0-7.898,3.45-14,10.351-18.301c6.899-4.299,17.898-7.299,33-9c0-1.898-0.251-3.725-0.75-5.475
		c-0.502-1.748-1.275-3.301-2.325-4.65s-2.4-2.4-4.05-3.15c-1.65-0.75-3.727-1.125-6.226-1.125c-3.7,0-7.274,0.701-10.725,2.1
		c-3.45,1.402-6.776,3.102-9.976,5.102l-6.3-11.551c4.1-2.6,8.675-4.85,13.726-6.75c5.048-1.898,10.523-2.85,16.425-2.85
		c9.3,0,16.2,2.725,20.7,8.174c4.5,5.453,6.75,13.328,6.75,23.625v43.65h-14.101l-1.35-8.1h-0.45
		c-3.3,2.801-6.825,5.152-10.575,7.051s-7.825,2.85-12.225,2.85c-6.502,0-11.775-1.975-15.825-5.926
		C2118.394,1213.773,2116.368,1208.549,2116.368,1202.049z M2133.168,1200.697c0,3.301,0.976,5.701,2.926,7.201
		c1.949,1.5,4.474,2.25,7.574,2.25c3,0,5.75-0.699,8.25-2.1c2.499-1.4,5.101-3.398,7.801-6v-16.5c-5.002,0.6-9.202,1.4-12.601,2.398
		c-3.4,1.002-6.126,2.127-8.175,3.375c-2.051,1.252-3.525,2.678-4.425,4.275C2133.618,1197.199,2133.168,1198.898,2133.168,1200.697
		z"/>
	<path d="M2220.018,1183.447l-21.9-35.25h18.601l8.25,13.951c1.099,2.002,2.224,4.076,3.375,6.225
		c1.148,2.152,2.273,4.227,3.375,6.225h0.6c0.9-1.998,1.85-4.072,2.851-6.225c0.998-2.148,1.949-4.223,2.85-6.225l7.05-13.951
		h17.851l-21.75,37.201l23.399,36.449h-18.6l-9-14.549c-1.2-2.199-2.426-4.4-3.675-6.602c-1.252-2.197-2.527-4.35-3.825-6.449
		h-0.601c-1.102,2.1-2.175,4.227-3.225,6.375c-1.05,2.152-2.126,4.375-3.225,6.676l-7.801,14.549h-18L2220.018,1183.447z"/>
</g>
</svg>