<svg version="1.1" id="Layer_1" xmlns="http://www.w3.org/2000/svg" xmlns:xlink="http://www.w3.org/1999/xlink" x="0px" y="0px"
	 width="63.306px" height="80px" viewBox="8.346 0 63.306 80" enable-background="new 8.346 0 63.306 80" xml:space="preserve">
<g>
	<path fill="#212529" d="M71.652,31.663c0-17.861-14.793-32.263-32.784-31.644C23.015,0.574,10.015,12.774,8.498,28.563
		c-0.311,3.132-0.13,6.183,0.424,9.102l0,0c0,0,0.05,0.342,0.212,0.979c0.489,2.186,1.207,4.289,2.137,6.28
		c3.278,7.748,10.945,20.829,28.397,34.955c0.196,0.162,0.49,0.162,0.685,0c17.469-14.127,25.12-27.207,28.397-34.955
		c0.915-1.991,1.648-4.094,2.137-6.281c0.147-0.636,0.213-0.979,0.213-0.979l0,0C71.457,35.74,71.652,33.718,71.652,31.663z
		 M54.494,44.646c-0.424-0.799-1.125-1.451-2.217-1.746c-3.801-0.962-6.9-3.147-6.9-3.147l-2.414,7.634l-0.457,1.436v-0.017
		l-0.392,1.222l-1.272-3.604c3.132-4.371-0.635-4.322-0.848-4.322c-0.212,0-3.98-0.049-0.849,4.322l-1.272,3.604l-0.391-1.222v0.017
		l-0.457-1.436l-2.414-7.634c0,0-3.099,2.186-6.9,3.147c-1.093,0.277-1.794,0.947-2.219,1.746
		c-2.936-3.377-4.713-7.781-4.713-12.609c0-10.619,8.612-19.214,19.214-19.214c10.602,0,19.213,8.596,19.213,19.214
		C59.208,36.866,57.43,41.27,54.494,44.646z"/>
	<path fill="#212529" d="M47.057,29.493c0.113-0.342,0.212-0.668,0.277-1.011c1.06-6.346-2.072-6.573-2.072-6.573
		s-0.521-0.996-1.875-1.746c-0.914-0.539-2.186-0.962-3.866-0.816c-0.539,0.033-1.06,0.13-1.534,0.294l0,0
		c-0.62,0.212-1.191,0.505-1.697,0.865c-0.636,0.391-1.223,0.881-1.746,1.435c-0.832,0.849-1.566,1.941-1.892,3.311
		c-0.261,1.027-0.212,2.088,0.017,3.23l0,0c0.066,0.326,0.147,0.668,0.278,1.011c-0.62-0.066-1.354,0.31-0.669,2.757
		c0.506,1.794,0.979,2.3,1.338,2.316c0.326,2.137,1.974,4.844,4.682,5.791c1.108,0.391,2.331,0.391,3.425,0
		c2.658-0.962,4.355-3.654,4.682-5.791c0.357-0.033,0.832-0.538,1.338-2.316C48.426,29.787,47.691,29.428,47.057,29.493z"/>
</g>
</svg>